<svg xmlns="http://www.w3.org/2000/svg" viewBox="0 0 557.89 548.31"><defs><style>.cls-1{fill:#b8a0c5;}.cls-2{fill:#a281b0;}.cls-3{fill:#a98bb7;}.cls-4{fill:#c0abcc;}.cls-5{fill:#d1c3db;}.cls-6{fill:#dad0e3;}.cls-7{fill:#b095be;}</style></defs><g id="Layer_2" data-name="Layer 2"><g id="Layer_5" data-name="Layer 5"><polygon class="cls-1" points="557.89 41.34 489.54 0 117.62 23.67 117.62 26.03 557.74 41.82 557.89 41.34"/><polygon class="cls-2" points="173 419.8 27.44 487.01 0 154.85 173.03 64.63 173 419.8"/><polygon class="cls-2" points="543.09 412.3 166.27 419.8 173.03 64.63 557.74 41.82 543.09 412.3"/><polygon class="cls-3" points="489.54 4.12 117.62 26.03 173.03 64.63 557.74 41.82 489.54 4.12"/><polygon class="cls-1" points="401.53 548.23 27.44 487.01 0 154.85 402.86 154.85 401.53 548.23"/><polygon class="cls-4" points="383.95 171.03 393.47 498.29 394.61 160.37 56.34 160.37 383.95 171.03"/><polygon class="cls-3" points="543.09 412.3 401.53 548.31 401.53 154.85 557.74 41.82 543.09 412.3"/><polygon class="cls-1" points="348.73 61.9 223.66 154.85 401.53 154.85 557.74 41.82 348.73 61.9"/><polygon class="cls-1" points="173.03 64.63 1.49 154.85 179.38 154.85 335.57 64.45 173.03 64.63"/><polygon class="cls-5" points="448.02 69.67 74.99 88.01 0 154.85 402.86 154.85 448.02 69.67"/><polygon class="cls-6" points="441.25 75.36 153.48 89.52 428.58 84.22 408.97 136.24 441.25 75.36"/><polygon class="cls-2" points="462.41 110.8 426.21 110.8 402.86 154.85 462.41 110.8"/><polygon class="cls-7" points="448.02 69.67 448.32 74.65 402.86 154.85 448.02 69.67"/><polygon class="cls-2" points="530.17 398.5 433.15 510.27 539.15 408.43 548.05 183 530.17 398.5"/></g></g></svg>